<svg id="Layer_1" data-name="Layer 1" xmlns="http://www.w3.org/2000/svg" width="107.2mm" height="14.3mm" viewBox="0 0 303.9 40.5">
  <g>
    <path d="M150.5,283.8a13.2,13.2,0,0,0,6.9,1.8c4.1,0,6.1-1.6,6.1-3.7s-1.3-3.3-6.2-4.3-6.9-2.3-6.9-5.5,2.9-5.3,8-5.3a12.3,12.3,0,0,1,6.1,1.3l-.7,1.7a12.7,12.7,0,0,0-5.4-1.2c-4,0-5.7,1.7-5.7,3.3s1.3,2.9,5.7,3.8,7.3,3,7.3,6-2.2,5.7-8.7,5.7a12.6,12.6,0,0,1-7.2-1.9Z" transform="translate(-149.8 -247.2)" fill="#1d1d1b"/>
    <path d="M175.3,277.3c0-6.3,4.3-10.5,9.9-10.5s9.6,4.2,9.6,10.1-4.6,10.5-9.8,10.5S175.3,283.2,175.3,277.3Zm17.2-.3c0-4.1-2.4-8.5-7.4-8.5s-7.4,4.3-7.4,8.8,2.5,8.4,7.4,8.4S192.5,281.8,192.5,277Z" transform="translate(-149.8 -247.2)" fill="#1d1d1b"/>
    <path d="M205.1,266.9h2.2v10.3h.1l1.9-2.1,8-8.2h2.8l-8.7,8.7,9.6,11.7h-2.7L209.8,277l-2.5,2.4v7.9h-2.2Z" transform="translate(-149.8 -247.2)" fill="#1d1d1b"/>
    <path d="M230,277.3c0-6.3,4.2-10.5,9.9-10.5s9.6,4.2,9.6,10.1-4.6,10.5-9.9,10.5S230,283.2,230,277.3Zm17.1-.3c0-4.1-2.4-8.5-7.3-8.5s-7.5,4.3-7.5,8.8,2.5,8.4,7.4,8.4S247.1,281.8,247.1,277Z" transform="translate(-149.8 -247.2)" fill="#1d1d1b"/>
    <path d="M258.5,247.3h2.2v38.5h12.4v1.8H258.5Z" transform="translate(-149.8 -247.2)" fill="#1d1d1b"/>
    <path d="M310.2,267.6a47.8,47.8,0,0,1,5.7-.4c9.6,0,11.4,5.7,11.4,9.7a10.6,10.6,0,0,1-2.9,7.7c-1.9,1.8-4.9,3-9.3,3a36.8,36.8,0,0,1-4.9-.3Zm2.3,18.1h3.1c6.3,0,9.3-3.4,9.3-8.8s-2.7-8.1-8.9-8.1a25.3,25.3,0,0,0-3.5.3" transform="translate(-149.8 -247.2)" fill="#1d1d1b"/>
    <path d="M352.2,277.8H340.9v7.8h12.4v1.8H338.6v-20h14.1v1.8H340.9V276h11.3Z" transform="translate(-149.8 -247.2)" fill="#1d1d1b"/>
    <path d="M365.8,284a12.3,12.3,0,0,0,6.9,1.9c4.1,0,6.1-1.7,6.1-3.7s-1.4-3.3-6.2-4.3-6.9-2.4-6.9-5.6,2.9-5.2,8-5.2a12.3,12.3,0,0,1,6.1,1.3l-.7,1.7a11.2,11.2,0,0,0-5.4-1.3c-4,0-5.7,1.8-5.7,3.4s1.3,2.9,5.7,3.8,7.3,2.9,7.3,5.9-2.2,5.8-8.7,5.8a13.4,13.4,0,0,1-7.2-1.9Z" transform="translate(-149.8 -247.2)" fill="#1d1d1b"/>
    <path d="M397,267.1v20.5h-2.2V267.1Z" transform="translate(-149.8 -247.2)" fill="#1d1d1b"/>
    <path d="M420.3,276.8h7v9.5a18.8,18.8,0,0,1-6.8,1.1c-8.2,0-11.1-5.4-11.1-10.3s4-10.4,11.8-10.4a13.8,13.8,0,0,1,5.4,1l-.6,1.8a12.2,12.2,0,0,0-4.9-.9c-5.8,0-9.3,3.6-9.3,8.5s3.4,8.5,8.9,8.5a11.8,11.8,0,0,0,4.4-.7v-6.3h-4.8Z" transform="translate(-149.8 -247.2)" fill="#1d1d1b"/>
    <path d="M438.6,287.6V267.1h2.3l7.2,11.2c1.5,2.4,2.6,4.3,3.7,6.2h.1c-.2-2.6-.3-5-.3-8.3v-9.1h2.2v20.5h-2.2l-7.1-10.9q-2.2-3.4-3.9-6.6h-.1c.1,2.3.2,4.8.2,8.2v9.2Z" transform="translate(-149.8 -247.2)" fill="#1d1d1b"/>
  </g>
  <path d="M262.2,253.7" transform="translate(-149.8 -247.2)" fill="none" stroke="#1d1d1b" stroke-miterlimit="10" stroke-width="0.61"/>
  <path d="M301.5,244.7" transform="translate(-149.8 -247.2)" fill="none" stroke="#1d1d1b" stroke-miterlimit="10"/>
  <path d="M332.8,270.4" transform="translate(-149.8 -247.2)" fill="none" stroke="#1d1d1b" stroke-miterlimit="10"/>
  <path d="M295,270l-11.3-8.1-11.5,8.2" transform="translate(-149.8 -247.2)" fill="none" stroke="#1d1d1b" stroke-miterlimit="10"/>
  <rect x="136.5" y="27.3" width="1.3" height="1.32" fill="#1d1d1b" stroke="#1d1d1b" stroke-miterlimit="10" stroke-width="0.64"/>
  <rect x="136.5" y="29.9" width="1.3" height="1.32" fill="#1d1d1b" stroke="#1d1d1b" stroke-miterlimit="10" stroke-width="0.64"/>
  <rect x="139.3" y="29.9" width="1.3" height="1.32" fill="#1d1d1b" stroke="#1d1d1b" stroke-miterlimit="10" stroke-width="0.64"/>
  <path d="M274.3,265.9,277,264v-2.7h-2.7Z" transform="translate(-149.8 -247.2)" fill="#1d1d1b" stroke="#1d1d1b" stroke-miterlimit="10" stroke-width="0.91"/>
  <path d="M275.9,259.1" transform="translate(-149.8 -247.2)" fill="none" stroke="#1d1d1b" stroke-miterlimit="10" stroke-width="0.91"/>
  <rect x="139.3" y="27.3" width="1.3" height="1.32" fill="#1d1d1b" stroke="#1d1d1b" stroke-miterlimit="10" stroke-width="0.64"/>
  <polyline points="144 40.1 144 24.4 133.8 16.9 123.7 24.3 123.7 40.2 123.7 40.1" fill="none" stroke="#1d1d1b" stroke-miterlimit="10" stroke-width="1.01"/>
  <path d="M273.5,286.9" transform="translate(-149.8 -247.2)" fill="none" stroke="#1d1d1b" stroke-miterlimit="10"/>
  <path d="M273.2,286.9H293V271.4l-9.7-6.7-9.7,6.6v15.6" transform="translate(-149.8 -247.2)" fill="#1d1d1b" stroke="#1d1d1b" stroke-miterlimit="10" stroke-width="0.98" opacity="0.15"/>
  <line x1="123.3" y1="39.7" x2="144.5" y2="39.7" fill="#1d1d1b" stroke="#1d1d1b" stroke-miterlimit="10" stroke-width="1.14"/>
  <path d="M92.2,245.6" transform="translate(-149.8 -247.2)" fill="none" stroke="#1d1d1b" stroke-miterlimit="10" stroke-width="1.01"/>
  <path d="M148.4,285.9" transform="translate(-149.8 -247.2)" fill="#1d1d1b"/>
</svg>
